<svg xmlns="http://www.w3.org/2000/svg" width="560" height="420" viewBox="0 0 560 420">
  <rect width="560" height="420" fill="black" fill-opacity="0"/>
  <g stroke="#f4ead8" stroke-opacity="0.28" fill="none" stroke-width="1.2">
    <path d="M120 110 L175 70 L245 58 L304 72 L360 102 L401 152 L415 215 L386 273 L340 318 L285 330 L228 320 L175 290 L146 242 L137 188 Z"/>
    <path d="M177 70 L155 24 L221 52"/>
    <path d="M304 72 L336 26 L377 90"/>
    <path d="M199 289 L178 345 L220 318"/>
    <path d="M340 318 L370 380 L285 330"/>
    <path d="M146 242 L102 256 L132 198"/>
    <path d="M415 215 L451 203 L399 168"/>
  </g>
  <g fill="#f4ead8">
    <circle cx="120" cy="110" r="4"/><circle cx="175" cy="70" r="4"/><circle cx="245" cy="58" r="4"/>
    <circle cx="304" cy="72" r="4"/><circle cx="360" cy="102" r="4"/><circle cx="401" cy="152" r="4"/>
    <circle cx="415" cy="215" r="4"/><circle cx="386" cy="273" r="4"/><circle cx="340" cy="318" r="4"/>
    <circle cx="285" cy="330" r="4"/><circle cx="228" cy="320" r="4"/><circle cx="175" cy="290" r="4"/>
    <circle cx="146" cy="242" r="4"/><circle cx="137" cy="188" r="4"/>
    <circle cx="155" cy="24" r="4"/><circle cx="221" cy="52" r="4"/><circle cx="336" cy="26" r="4"/>
    <circle cx="377" cy="90" r="4"/><circle cx="178" cy="345" r="4"/><circle cx="220" cy="318" r="4"/>
    <circle cx="370" cy="380" r="4"/><circle cx="102" cy="256" r="4"/><circle cx="132" cy="198" r="4"/>
    <circle cx="451" cy="203" r="4"/><circle cx="399" cy="168" r="4"/>
  </g>
</svg>